<svg width="16" height="17" viewBox="0 0 16 17" fill="none" xmlns="http://www.w3.org/2000/svg">
<path d="M2 3.72112V12.3126C1.99985 13.1627 2.36185 13.981 3.01256 14.6015C3.66327 15.2221 4.55397 15.5984 5.504 15.6542L5.75 15.6609H12.371C12.2159 16.0525 11.9287 16.3916 11.5488 16.6314C11.169 16.8713 10.7152 17.0001 10.25 17.0001H5C3.80653 17.0001 2.66193 16.5768 1.81802 15.8233C0.974106 15.0698 0.5 14.0479 0.5 12.9823V5.61621C0.499756 5.2006 0.643892 4.79514 0.912542 4.45573C1.18119 4.11632 1.56113 3.85966 2 3.72112ZM13.25 0.928711C13.8467 0.928711 14.419 1.14037 14.841 1.51711C15.2629 1.89386 15.5 2.40484 15.5 2.93764V12.3126C15.5 12.8454 15.2629 13.3564 14.841 13.7332C14.419 14.1099 13.8467 14.3216 13.25 14.3216H5.75C5.15326 14.3216 4.58097 14.1099 4.15901 13.7332C3.73705 13.3564 3.5 12.8454 3.5 12.3126V2.93764C3.5 2.40484 3.73705 1.89386 4.15901 1.51711C4.58097 1.14037 5.15326 0.928711 5.75 0.928711H13.25ZM13.25 2.268H5.75C5.55109 2.268 5.36032 2.33855 5.21967 2.46413C5.07902 2.58971 5 2.76004 5 2.93764V12.3126C5 12.4902 5.07902 12.6606 5.21967 12.7861C5.36032 12.9117 5.55109 12.9823 5.75 12.9823H13.25C13.4489 12.9823 13.6397 12.9117 13.7803 12.7861C13.921 12.6606 14 12.4902 14 12.3126V2.93764C14 2.76004 13.921 2.58971 13.7803 2.46413C13.6397 2.33855 13.4489 2.268 13.25 2.268Z" fill="#833F1D"/>
</svg>
