<svg width="14" height="14" viewBox="0 0 14 14" fill="none" xmlns="http://www.w3.org/2000/svg">
<path d="M4.23916 6.4803C4.11662 6.35714 4.04793 6.1904 4.04814 6.01666C4.04835 5.84293 4.11744 5.67636 4.24028 5.55349C4.36311 5.43062 4.52966 5.36147 4.7034 5.36121C4.87714 5.36095 5.04389 5.42959 5.16709 5.55209L6.34375 6.72842V2.1875C6.34375 2.01345 6.41289 1.84653 6.53596 1.72346C6.65903 1.60039 6.82595 1.53125 7 1.53125C7.17405 1.53125 7.34097 1.60039 7.46404 1.72346C7.58711 1.84653 7.65625 2.01345 7.65625 2.1875V6.72842L8.83291 5.55209C8.95611 5.42959 9.12286 5.36095 9.2966 5.36121C9.47034 5.36147 9.63689 5.43062 9.75972 5.55349C9.88256 5.67636 9.95165 5.84293 9.95186 6.01666C9.95207 6.1904 9.88338 6.35714 9.76084 6.4803L7.46397 8.77663C7.3409 8.89966 7.17401 8.96877 7 8.96877C6.82599 8.96877 6.6591 8.89966 6.53603 8.77663L4.23916 6.4803ZM11.8125 7.65625C11.6385 7.65625 11.4715 7.72539 11.3485 7.84846C11.2254 7.97153 11.1562 8.13845 11.1562 8.3125V11.1562H2.84375V8.3125C2.84375 8.13845 2.77461 7.97153 2.65154 7.84846C2.52847 7.72539 2.36155 7.65625 2.1875 7.65625C2.01345 7.65625 1.84653 7.72539 1.72346 7.84846C1.60039 7.97153 1.53125 8.13845 1.53125 8.3125V11.375C1.53157 11.665 1.6469 11.943 1.85195 12.148C2.057 12.3531 2.33502 12.4684 2.625 12.4688H11.375C11.665 12.4684 11.943 12.3531 12.148 12.148C12.3531 11.943 12.4684 11.665 12.4688 11.375V8.3125C12.4688 8.13845 12.3996 7.97153 12.2765 7.84846C12.1535 7.72539 11.9865 7.65625 11.8125 7.65625Z" fill="#FDECD9"/>
</svg>
