<svg width="16" height="16" viewBox="0 0 16 16" fill="none" xmlns="http://www.w3.org/2000/svg">
<path d="M1.21925 2.29115C0.889198 2.50032 0.617422 2.78959 0.429215 3.13204C0.241009 3.47448 0.142489 3.85897 0.142823 4.24972V11.7497C0.142823 13.8212 1.82139 15.4997 3.89282 15.4997H11.3928C11.7838 15.5 12.1686 15.4013 12.5112 15.213C12.8539 15.0247 13.1434 14.7528 13.3528 14.4226L13.2657 14.4269L13.1785 14.4283H3.89282C3.18242 14.4283 2.50112 14.1461 1.99879 13.6438C1.49646 13.1414 1.21425 12.4601 1.21425 11.7497V2.46401C1.21425 2.40615 1.21568 2.34829 1.21925 2.29115ZM4.24997 0.142578C3.63428 0.142578 3.04382 0.387156 2.60847 0.822509C2.17312 1.25786 1.92854 1.84833 1.92854 2.46401V11.3926C1.92854 11.6974 1.98858 11.9993 2.10525 12.281C2.22191 12.5626 2.3929 12.8185 2.60847 13.0341C2.82403 13.2496 3.07995 13.4206 3.36159 13.5373C3.64324 13.654 3.94511 13.714 4.24997 13.714H13.1785C13.4834 13.714 13.7853 13.654 14.0669 13.5373C14.3486 13.4206 14.6045 13.2496 14.82 13.0341C15.0356 12.8185 15.2066 12.5626 15.3233 12.281C15.4399 11.9993 15.5 11.6974 15.5 11.3926V2.46401C15.5 1.84833 15.2554 1.25786 14.82 0.822509C14.3847 0.387156 13.7942 0.142578 13.1785 0.142578H4.24997ZM3.83425 12.5719L8.33925 8.15901C8.4298 8.07046 8.54878 8.01685 8.6751 8.0077C8.80141 7.99854 8.92689 8.03444 9.02925 8.10901L9.08925 8.15901L13.5935 12.5719C13.4602 12.6187 13.3199 12.6427 13.1785 12.6426H4.24997C4.10425 12.6426 3.96425 12.6176 3.83425 12.5719ZM4.24997 1.21401H13.1785C13.8685 1.21401 14.4285 1.77401 14.4285 2.46401V11.3926C14.4285 11.5412 14.4028 11.684 14.355 11.8162L9.83925 7.39401C9.55422 7.11478 9.17551 6.95157 8.7768 6.93613C8.37809 6.92068 7.98789 7.0541 7.68211 7.31044L7.58925 7.39401L3.07354 11.8169C3.02461 11.6808 2.99972 11.5372 2.99997 11.3926V2.46401C2.99997 1.77401 3.55997 1.21401 4.24997 1.21401ZM6.21425 3.53615C6.09492 3.53277 5.97613 3.55336 5.86489 3.5967C5.75366 3.64003 5.65225 3.70523 5.56665 3.78844C5.48105 3.87165 5.41301 3.97118 5.36655 4.08114C5.32008 4.19111 5.29614 4.30927 5.29614 4.42865C5.29614 4.54803 5.32008 4.66619 5.36655 4.77616C5.41301 4.88612 5.48105 4.98565 5.56665 5.06886C5.65225 5.15207 5.75366 5.21727 5.86489 5.26061C5.97613 5.30394 6.09492 5.32453 6.21425 5.32115C6.44659 5.31458 6.6672 5.21766 6.82921 5.051C6.99122 4.88435 7.08186 4.66108 7.08186 4.42865C7.08186 4.19622 6.99122 3.97296 6.82921 3.8063C6.6672 3.63964 6.44659 3.54272 6.21425 3.53615Z" fill="#833F1D"/>
</svg>
