<svg xmlns="http://www.w3.org/2000/svg" viewBox="0 0 2000 548.63"><defs><style>.cls-1,.cls-3{fill:#000d20;}.cls-1{fill-rule:evenodd;}.cls-2{fill:#fff;}.cls-3{font-size:285.65px;font-family:Rubik-Medium, Rubik;font-weight:500;}.cls-4{letter-spacing:-0.01em;}</style></defs><g id="Layer_2" data-name="Layer 2"><g id="Layer_1-2" data-name="Layer 1"><g id="Page-1"><g id="Logo-Blue"><g id="Group"><g id="MNX"><path id="Fill-425" class="cls-1" d="M547.2,242.93H495.55C481.1,141.9,399.17,62.7,297.08,52.85V1.27C427.49,11.49,532.23,113.48,547.2,242.93"/><path id="Fill-426" class="cls-1" d="M548.49,292.33C540,428.65,432.33,538,297.08,548.63V497.08c107-10.35,191.81-96.81,200.06-204.75Z"/></g><g id="MNX-2" data-name="MNX"><path id="Fill-425-2" data-name="Fill-425" class="cls-1" d="M1.29,305.7H53c14.44,101,96.37,180.22,198.47,190.08v51.58C121,537.14,16.26,435.15,1.29,305.7"/><path id="Fill-426-2" data-name="Fill-426" class="cls-1" d="M0,256.3C8.48,120,116.16,10.6,251.42,0V51.55C144.42,61.9,59.61,148.36,51.35,256.3Z"/></g></g><path id="Rectangle" class="cls-1" d="M166.23,152.14H395.94a5.52,5.52,0,0,1,5.5,5.5V388.23a5.52,5.52,0,0,1-5.5,5.51H166.23a5.52,5.52,0,0,1-5.5-5.51V157.64A5.5,5.5,0,0,1,166.23,152.14Z"/><g id="Group-2" data-name="Group"><path id="Shape" class="cls-2" d="M254,237.25c9.41,0,16.85,2.78,22.24,8.35s8.2,13.46,8.2,23.9v41.41h-7.6V289.43H231.12v21.48h-7.48V269.5q0-15.66,8.12-23.9T254,237.25Zm22.87,45.49v-14q0-12.22-6-18.36c-4-4.19-9.64-6.25-16.85-6.25s-12.82,2.09-16.84,6.25-6,10.21-6,18.36v14Z"/><polygon id="Path" class="cls-2" points="322.57 244.55 322.57 304.22 337.35 304.22 337.35 310.91 300.23 310.91 300.23 304.22 314.98 304.22 314.98 244.55 300.23 244.55 300.23 237.88 337.35 237.88 337.35 244.55 322.57 244.55"/></g><path id="Path-2" data-name="Path" class="cls-1" d="M237.32,130.19a5.47,5.47,0,0,1,5.47,5.48V168.6a5.48,5.48,0,1,1-10.95,0V135.67A5.48,5.48,0,0,1,237.32,130.19Z"/><path id="Path-3" data-name="Path" class="cls-1" d="M237.32,371.76a5.47,5.47,0,0,1,5.47,5.48v32.94a5.48,5.48,0,1,1-10.95,0V377.24A5.49,5.49,0,0,1,237.32,371.76Z"/><g id="Group-3"><path id="Path-4" data-name="Path" class="cls-1" d="M138.84,226.26a5.48,5.48,0,0,1,5.48-5.48h21.87a5.48,5.48,0,1,1,0,11H144.32A5.44,5.44,0,0,1,138.84,226.26Z"/><path id="Path-5" data-name="Path" class="cls-1" d="M138.84,270.21a5.48,5.48,0,0,1,5.48-5.48h32.83a5.48,5.48,0,0,1,0,11H144.32A5.48,5.48,0,0,1,138.84,270.21Z"/><path id="Path-6" data-name="Path" class="cls-1" d="M138.84,314.13a5.5,5.5,0,0,1,5.48-5.51h27.35a5.48,5.48,0,1,1,0,11H144.32A5.44,5.44,0,0,1,138.84,314.13Z"/></g><g id="Group-3-2" data-name="Group-3"><path id="Path-7" data-name="Path" class="cls-1" d="M423.33,314.13a5.48,5.48,0,0,1-5.48,5.48H396a5.48,5.48,0,0,1,0-11h21.87A5.45,5.45,0,0,1,423.33,314.13Z"/><path id="Path-8" data-name="Path" class="cls-1" d="M423.33,270.19a5.48,5.48,0,0,1-5.48,5.48H385a5.48,5.48,0,0,1,0-11h32.83A5.48,5.48,0,0,1,423.33,270.19Z"/><path id="Path-9" data-name="Path" class="cls-1" d="M423.33,226.27a5.49,5.49,0,0,1-5.48,5.5H390.5a5.48,5.48,0,0,1,0-11h27.35A5.45,5.45,0,0,1,423.33,226.27Z"/></g><path id="Path-10" data-name="Path" class="cls-1" d="M281.1,130.19a5.47,5.47,0,0,1,5.47,5.48v24.7a5.48,5.48,0,1,1-10.95,0v-24.7A5.48,5.48,0,0,1,281.1,130.19Z"/><path id="Path-11" data-name="Path" class="cls-1" d="M281.1,377.27a5.47,5.47,0,0,1,5.47,5.48v24.7a5.48,5.48,0,1,1-10.95,0v-24.7A5.48,5.48,0,0,1,281.1,377.27Z"/><path id="Path-12" data-name="Path" class="cls-1" d="M324.85,130.19a5.48,5.48,0,0,1,5.48,5.48v22a5.48,5.48,0,1,1-10.95,0v-22A5.47,5.47,0,0,1,324.85,130.19Z"/><path id="Path-13" data-name="Path" class="cls-1" d="M324.85,380a5.48,5.48,0,0,1,5.48,5.48v22a5.48,5.48,0,1,1-10.95,0v-22A5.47,5.47,0,0,1,324.85,380Z"/></g></g><text class="cls-3" transform="translate(686.91 372.95)">O<tspan class="cls-4" x="198.53" y="0">r</tspan><tspan x="315.36" y="0">aichain</tspan></text></g></g></svg>